G04 This is an RS-274x file exported by *
G04 gerbv version 2.6.0 *
G04 More information is available about gerbv at *
G04 http://gerbv.gpleda.org/ *
G04 --End of header info--*
%MOIN*%
%FSLAX34Y34*%
%IPPOS*%
G04 --Define apertures--*
%ADD10C,0.0039*%
G04 --Start main section--*
G54D10*
G01X0034431Y-047866D02*
G75*
G03X0034596Y-048083I0000191J-000026D01*
G01X0034611Y-047698D02*
G75*
G03X0034434Y-047891I0000008J-000185D01*
G01X0035610Y-048083D02*
G75*
G03X0035805Y-047906I0000009J0000186D01*
G01X0035802Y-047898D02*
G75*
G03X0035642Y-047690I-000184J0000024D01*
G01X0035622Y-048089D02*
G01X0034593Y-048089D01*
G01X0034634Y-047691D02*
G01X0035631Y-047691D01*
G01X0037012Y-049388D02*
G75*
G03X0037196Y-049580I0000188J-000004D01*
G01X0037200Y-049570D02*
G75*
G03X0037408Y-049398I0000018J0000190D01*
G01X0037218Y-048382D02*
G75*
G03X0037024Y-048560I-000008J-000186D01*
G01X0037394Y-048582D02*
G75*
G03X0037220Y-048384I-000186J0000012D01*
G01X0037406Y-049380D02*
G01X0037406Y-048564D01*
G01X0037016Y-048562D02*
G01X0037016Y-049374D01*
G01X0034548Y-050243D02*
G75*
G03X0034722Y-050423I0000177J-000003D01*
G01X0034741Y-050072D02*
G75*
G03X0034550Y-050231I-000016J-000175D01*
G01X0035507Y-050424D02*
G01X0034725Y-050424D01*
G01X0035519Y-050070D02*
G01X0034730Y-050070D01*
G01X0035510Y-050428D02*
G75*
G03X0035699Y-050253I0000007J0000182D01*
G01X0035699Y-050238D02*
G75*
G03X0035523Y-050072I-000171J-000005D01*
G01X0073000Y-034000D02*
G01X0025000Y-034000D01*
G01X0073000Y-035000D02*
G01X0073000Y-034000D01*
G01X0073000Y-053500D02*
G01X0073000Y-035000D01*
G01X0025000Y-053500D02*
G01X0073000Y-053500D01*
G01X0025000Y-034000D02*
G01X0025000Y-053500D01*
M02*
