G04 #@! TF.FileFunction,Legend,Bot*
%FSLAX46Y46*%
G04 Gerber Fmt 4.6, Leading zero omitted, Abs format (unit mm)*
G04 Created by KiCad (PCBNEW (2015-05-11 BZR 5650)-product) date Mon 11 May 2015 08:58:08 PM *
%MOMM*%
G01*
G04 APERTURE LIST*
%ADD10C,0.100000*%
%ADD11C,0.300000*%
%ADD12C,0.500000*%
%ADD13C,0.200000*%
%ADD14R,1.998980X1.524000*%
%ADD15O,1.998980X1.524000*%
%ADD16R,2.199640X1.524000*%
%ADD17O,2.199640X1.524000*%
%ADD18C,3.500120*%
%ADD19O,1.998980X4.000500*%
%ADD20O,4.000500X1.998980*%
%ADD21O,4.500880X1.998980*%
%ADD22R,2.999740X2.999740*%
%ADD23C,2.999740*%
%ADD24R,1.524000X1.998980*%
%ADD25O,1.524000X1.998980*%
G04 APERTURE END LIST*
D10*
D11*
X182848000Y-130147143D02*
X182633714Y-130218571D01*
X182276571Y-130218571D01*
X182133714Y-130147143D01*
X182062285Y-130075714D01*
X181990857Y-129932857D01*
X181990857Y-129790000D01*
X182062285Y-129647143D01*
X182133714Y-129575714D01*
X182276571Y-129504286D01*
X182562285Y-129432857D01*
X182705143Y-129361429D01*
X182776571Y-129290000D01*
X182848000Y-129147143D01*
X182848000Y-129004286D01*
X182776571Y-128861429D01*
X182705143Y-128790000D01*
X182562285Y-128718571D01*
X182205143Y-128718571D01*
X181990857Y-128790000D01*
X180276572Y-128647143D02*
X181562286Y-130575714D01*
X179776571Y-130218571D02*
X179776571Y-128718571D01*
X178919428Y-130218571D01*
X178919428Y-128718571D01*
D12*
X164338000Y-131318000D02*
X182880000Y-131318000D01*
X182880000Y-131572000D02*
X164338000Y-131572000D01*
X164338000Y-131826000D02*
X182880000Y-131826000D01*
X182880000Y-132080000D02*
X164338000Y-132080000D01*
X164338000Y-132334000D02*
X182880000Y-132334000D01*
X182880000Y-132588000D02*
X164338000Y-132588000D01*
X164338000Y-132842000D02*
X182880000Y-132842000D01*
X182880000Y-133096000D02*
X164338000Y-133096000D01*
X164338000Y-133350000D02*
X182880000Y-133350000D01*
X182880000Y-133604000D02*
X164338000Y-133604000D01*
D13*
X164084000Y-133858000D02*
X183134000Y-133858000D01*
X164084000Y-133604000D02*
X164084000Y-133858000D01*
X164084000Y-133350000D02*
X164084000Y-133604000D01*
X164084000Y-131064000D02*
X164084000Y-133350000D01*
X183134000Y-131064000D02*
X164084000Y-131064000D01*
X183134000Y-133858000D02*
X183134000Y-131064000D01*
D11*
X170145428Y-110124286D02*
X170145428Y-104124286D01*
X167288285Y-106124286D02*
X167288285Y-110124286D01*
X167288285Y-106695714D02*
X167002570Y-106410000D01*
X166431142Y-106124286D01*
X165573999Y-106124286D01*
X165002570Y-106410000D01*
X164716856Y-106981429D01*
X164716856Y-110124286D01*
X162716856Y-106124286D02*
X160431142Y-106124286D01*
X161859714Y-104124286D02*
X161859714Y-109267143D01*
X161573999Y-109838571D01*
X161002571Y-110124286D01*
X160431142Y-110124286D01*
X156145428Y-109838571D02*
X156716857Y-110124286D01*
X157859714Y-110124286D01*
X158431143Y-109838571D01*
X158716857Y-109267143D01*
X158716857Y-106981429D01*
X158431143Y-106410000D01*
X157859714Y-106124286D01*
X156716857Y-106124286D01*
X156145428Y-106410000D01*
X155859714Y-106981429D01*
X155859714Y-107552857D01*
X158716857Y-108124286D01*
X153288286Y-110124286D02*
X153288286Y-106124286D01*
X153288286Y-107267143D02*
X153002571Y-106695714D01*
X152716857Y-106410000D01*
X152145428Y-106124286D01*
X151574000Y-106124286D01*
X149574000Y-106124286D02*
X149574000Y-110124286D01*
X149574000Y-106695714D02*
X149288285Y-106410000D01*
X148716857Y-106124286D01*
X147859714Y-106124286D01*
X147288285Y-106410000D01*
X147002571Y-106981429D01*
X147002571Y-110124286D01*
X141859714Y-109838571D02*
X142431143Y-110124286D01*
X143574000Y-110124286D01*
X144145429Y-109838571D01*
X144431143Y-109267143D01*
X144431143Y-106981429D01*
X144145429Y-106410000D01*
X143574000Y-106124286D01*
X142431143Y-106124286D01*
X141859714Y-106410000D01*
X141574000Y-106981429D01*
X141574000Y-107552857D01*
X144431143Y-108124286D01*
X139859714Y-106124286D02*
X137574000Y-106124286D01*
X139002572Y-104124286D02*
X139002572Y-109267143D01*
X138716857Y-109838571D01*
X138145429Y-110124286D01*
X137574000Y-110124286D01*
X130145429Y-110124286D02*
X130716857Y-109838571D01*
X131002572Y-109552857D01*
X131288286Y-108981429D01*
X131288286Y-107267143D01*
X131002572Y-106695714D01*
X130716857Y-106410000D01*
X130145429Y-106124286D01*
X129288286Y-106124286D01*
X128716857Y-106410000D01*
X128431143Y-106695714D01*
X128145429Y-107267143D01*
X128145429Y-108981429D01*
X128431143Y-109552857D01*
X128716857Y-109838571D01*
X129288286Y-110124286D01*
X130145429Y-110124286D01*
X126431143Y-106124286D02*
X124145429Y-106124286D01*
X125574001Y-110124286D02*
X125574001Y-104981429D01*
X125288286Y-104410000D01*
X124716858Y-104124286D01*
X124145429Y-104124286D01*
X157574000Y-115681429D02*
X156716857Y-115967143D01*
X156431142Y-116252857D01*
X156145428Y-116824286D01*
X156145428Y-117681429D01*
X156431142Y-118252857D01*
X156716857Y-118538571D01*
X157288285Y-118824286D01*
X159574000Y-118824286D01*
X159574000Y-112824286D01*
X157574000Y-112824286D01*
X157002571Y-113110000D01*
X156716857Y-113395714D01*
X156431142Y-113967143D01*
X156431142Y-114538571D01*
X156716857Y-115110000D01*
X157002571Y-115395714D01*
X157574000Y-115681429D01*
X159574000Y-115681429D01*
X152716857Y-118824286D02*
X153288285Y-118538571D01*
X153574000Y-118252857D01*
X153859714Y-117681429D01*
X153859714Y-115967143D01*
X153574000Y-115395714D01*
X153288285Y-115110000D01*
X152716857Y-114824286D01*
X151859714Y-114824286D01*
X151288285Y-115110000D01*
X151002571Y-115395714D01*
X150716857Y-115967143D01*
X150716857Y-117681429D01*
X151002571Y-118252857D01*
X151288285Y-118538571D01*
X151859714Y-118824286D01*
X152716857Y-118824286D01*
X147288286Y-118824286D02*
X147859714Y-118538571D01*
X148145429Y-118252857D01*
X148431143Y-117681429D01*
X148431143Y-115967143D01*
X148145429Y-115395714D01*
X147859714Y-115110000D01*
X147288286Y-114824286D01*
X146431143Y-114824286D01*
X145859714Y-115110000D01*
X145574000Y-115395714D01*
X145288286Y-115967143D01*
X145288286Y-117681429D01*
X145574000Y-118252857D01*
X145859714Y-118538571D01*
X146431143Y-118824286D01*
X147288286Y-118824286D01*
X143288286Y-114824286D02*
X140145429Y-114824286D01*
X143288286Y-118824286D01*
X140145429Y-118824286D01*
X135574000Y-118538571D02*
X136145429Y-118824286D01*
X137288286Y-118824286D01*
X137859715Y-118538571D01*
X138145429Y-117967143D01*
X138145429Y-115681429D01*
X137859715Y-115110000D01*
X137288286Y-114824286D01*
X136145429Y-114824286D01*
X135574000Y-115110000D01*
X135288286Y-115681429D01*
X135288286Y-116252857D01*
X138145429Y-116824286D01*
%LPC*%
D14*
X78491080Y-114681000D03*
D15*
X81528920Y-114681000D03*
X78491080Y-117221000D03*
X81528920Y-117221000D03*
X78491080Y-119761000D03*
X81528920Y-119761000D03*
X78491080Y-122301000D03*
X81528920Y-122301000D03*
X78491080Y-124841000D03*
X81528920Y-124841000D03*
X78491080Y-127381000D03*
X81528920Y-127381000D03*
X78491080Y-129921000D03*
X81528920Y-129921000D03*
X78491080Y-132461000D03*
X81528920Y-132461000D03*
D16*
X112014000Y-101346000D03*
D17*
X112014000Y-98806000D03*
X112014000Y-96266000D03*
D18*
X97701100Y-130175000D03*
X119468900Y-130175000D03*
D19*
X94518480Y-124388880D03*
D20*
X89217500Y-127640080D03*
D21*
X89217500Y-121638060D03*
D22*
X69151500Y-90487500D03*
D23*
X69151500Y-105727500D03*
X69151500Y-110807500D03*
X69151500Y-115887500D03*
X69151500Y-120967500D03*
X69151500Y-126047500D03*
X69151500Y-131127500D03*
X69151500Y-100647500D03*
X69151500Y-95567500D03*
D16*
X114554000Y-101346000D03*
D17*
X114554000Y-98806000D03*
X114554000Y-96266000D03*
D24*
X95504000Y-90175080D03*
D25*
X95504000Y-93212920D03*
X92964000Y-90175080D03*
X92964000Y-93212920D03*
X90424000Y-90175080D03*
X90424000Y-93212920D03*
X87884000Y-90175080D03*
X87884000Y-93212920D03*
X85344000Y-90175080D03*
X85344000Y-93212920D03*
D24*
X100584000Y-93212920D03*
D25*
X100584000Y-90175080D03*
X103124000Y-93212920D03*
X103124000Y-90175080D03*
D14*
X114802920Y-114046000D03*
D15*
X111765080Y-114046000D03*
X114802920Y-111506000D03*
X111765080Y-111506000D03*
X114802920Y-108966000D03*
X111765080Y-108966000D03*
X114802920Y-106426000D03*
X111765080Y-106426000D03*
M02*
