M48
;DRILL file {KiCad (2015-05-11 BZR 5650)-product} date Mon 11 May 2015 08:44:58 PM 
;FORMAT={-:-/ absolute / inch / decimal}
FMAT,2
INCH,TZ
T1C0.016
T2C0.031
T3C0.039
T4C0.055
T5C0.071
%
G90
G05
M72
T1
X2.9725Y-4.3125
X3.0013Y-4.0229
X3.09Y-4.11
X3.16Y-4.11
X3.18Y-3.495
X3.25Y-3.86
X3.3Y-3.7853
X3.3175Y-4.38
X3.3553Y-4.2292
X3.3553Y-4.2812
X3.455Y-4.475
X3.4925Y-3.9625
X3.495Y-4.02
X3.495Y-4.0775
X3.495Y-4.135
X3.495Y-4.1925
X3.5225Y-4.2675
X3.5225Y-4.299
X3.5394Y-4.3256
X3.6214Y-4.1594
X3.622Y-4.1925
X3.622Y-4.1225
X3.6225Y-4.055
X3.6225Y-4.0875
X3.68Y-3.93
X3.725Y-4.47
X3.73Y-3.85
X3.75Y-4.125
X3.7537Y-4.2822
X3.8425Y-4.4
X3.88Y-3.96
X3.89Y-4.24
X3.9Y-4.28
X3.9214Y-4.0882
X3.9308Y-4.1183
X3.9325Y-4.325
X3.9365Y-4.2166
X3.96Y-4.13
X4.04Y-4.32
X4.0501Y-4.0936
X4.0753Y-4.17
X4.095Y-4.455
X4.1Y-4.28
X4.1261Y-4.3
X4.16Y-4.035
X4.19Y-4.05
X4.2178Y-4.1496
X4.3699Y-5.2601
X4.47Y-5.19
X4.7Y-4.12
X4.7087Y-4.4895
X4.72Y-4.52
X5.03Y-4.48
X5.17Y-4.45
X5.72Y-4.88
X5.8Y-4.42
X5.8205Y-4.7795
X5.83Y-4.45
X5.85Y-4.86
X5.87Y-3.84
X5.88Y-5.01
X5.89Y-4.84
X5.92Y-4.87
X5.9387Y-4.4519
X5.94Y-5.13
X5.9509Y-4.4991
X5.96Y-4.9
X6.Y-4.95
X6.02Y-4.56
X6.07Y-5.12
X6.14Y-4.67
X6.28Y-3.8
X6.3Y-4.62
X6.32Y-3.8
X6.32Y-4.93
X6.32Y-5.09
X6.36Y-3.8
X6.4Y-3.8
X6.44Y-3.8
X6.52Y-3.8
X6.55Y-5.03
X6.55Y-5.09
X6.56Y-3.8
X6.6Y-4.77
X6.64Y-3.53
X6.69Y-3.53
X6.74Y-3.53
X6.77Y-3.85
X6.7993Y-3.6857
X6.85Y-3.81
X6.9Y-4.15
X6.9Y-4.39
T2
X2.89Y-3.76
X3.Y-4.2
X3.41Y-4.55
X4.232Y-5.028
X4.2567Y-3.9633
X4.314Y-4.124
X4.454Y-4.98
X4.84Y-4.66
X5.48Y-5.24
X5.54Y-4.77
T3
X3.1Y-4.515
X3.1Y-4.615
X3.1Y-4.715
X3.1Y-4.815
X3.1Y-4.915
X3.1Y-5.015
X3.1Y-5.115
X3.1Y-5.215
X3.2Y-4.515
X3.2Y-4.615
X3.2Y-4.715
X3.2Y-4.815
X3.2Y-4.915
X3.2Y-5.015
X3.2Y-5.115
X3.2Y-5.215
X3.36Y-3.56
X3.36Y-3.66
X3.46Y-3.56
X3.46Y-3.66
X3.56Y-3.56
X3.56Y-3.66
X3.66Y-3.56
X3.66Y-3.66
X3.76Y-3.56
X3.76Y-3.66
X3.96Y-3.56
X3.96Y-3.66
X4.06Y-3.56
X4.06Y-3.66
X4.41Y-3.79
X4.41Y-3.89
X4.41Y-3.99
X4.41Y-4.19
X4.41Y-4.29
X4.41Y-4.39
X4.41Y-4.49
X4.51Y-3.79
X4.51Y-3.89
X4.51Y-3.99
X4.51Y-4.19
X4.51Y-4.29
X4.51Y-4.39
X4.51Y-4.49
T4
X2.7225Y-3.5625
X2.7225Y-3.7625
X2.7225Y-3.9625
X2.7225Y-4.1625
X2.7225Y-4.3625
X2.7225Y-4.5625
X2.7225Y-4.7625
X2.7225Y-4.9625
X2.7225Y-5.1625
T5
X3.8465Y-5.125
X4.7035Y-5.125
T3
X3.4633Y-4.7889G85X3.5617Y-4.7889
G05
X3.4731Y-5.0252G85X3.5518Y-5.0252
G05
X3.7212Y-4.8579G85X3.7212Y-4.9365
G05
T0
M30
