G04 #@! TF.FileFunction,Profile,NP*
%FSLAX46Y46*%
G04 Gerber Fmt 4.6, Leading zero omitted, Abs format (unit mm)*
G04 Created by KiCad (PCBNEW (2015-05-11 BZR 5650)-product) date Tue 12 May 2015 11:44:45 AM CEST*
%MOMM*%
G01*
G04 APERTURE LIST*
%ADD10C,0.100000*%
G04 APERTURE END LIST*
D10*
X87454740Y-121579640D02*
G75*
G03X87873840Y-122130820I485140J-66040D01*
G01*
X87911940Y-121152920D02*
G75*
G03X87462360Y-121643140I20320J-469900D01*
G01*
X90449400Y-122130820D02*
G75*
G03X90944700Y-121681240I22860J472440D01*
G01*
X90937080Y-121660920D02*
G75*
G03X90530680Y-121132600I-467360J60960D01*
G01*
X90479880Y-122146060D02*
X87866220Y-122146060D01*
X87970360Y-121135140D02*
X90502740Y-121135140D01*
X94010480Y-125445520D02*
G75*
G03X94477840Y-125933200I477520J-10160D01*
G01*
X94488000Y-125907800D02*
G75*
G03X95016320Y-125470920I45720J482600D01*
G01*
X94533720Y-122890280D02*
G75*
G03X94040960Y-123342400I-20320J-472440D01*
G01*
X94980760Y-123398280D02*
G75*
G03X94538800Y-122895360I-472440J30480D01*
G01*
X95011240Y-125425200D02*
X95011240Y-123352560D01*
X94020640Y-123347480D02*
X94020640Y-125409960D01*
X87751920Y-127617220D02*
G75*
G03X88193880Y-128074420I449580J-7620D01*
G01*
X88242140Y-127182880D02*
G75*
G03X87757000Y-127586740I-40640J-444500D01*
G01*
X90187780Y-128076960D02*
X88201500Y-128076960D01*
X90218260Y-127177800D02*
X88214200Y-127177800D01*
X90195400Y-128087120D02*
G75*
G03X90675460Y-127642620I17780J462280D01*
G01*
X90675460Y-127604520D02*
G75*
G03X90228420Y-127182880I-434340J-12700D01*
G01*
X185420000Y-86360000D02*
X63500000Y-86360000D01*
X185420000Y-88900000D02*
X185420000Y-86360000D01*
X185420000Y-135890000D02*
X185420000Y-88900000D01*
X63500000Y-135890000D02*
X185420000Y-135890000D01*
X63500000Y-86360000D02*
X63500000Y-135890000D01*
M02*
