M48
;DRILL file {KiCad (2015-05-11 BZR 5650)-product} date Tue 12 May 2015 11:44:48 AM CEST
;FORMAT={-:-/ absolute / inch / decimal}
FMAT,2
INCH,TZ
T1C0.012
T2C0.031
T3C0.039
T4C0.055
T5C0.071
%
G90
G05
M72
T1
X2.9725Y-4.3125
X3.0013Y-4.0229
X3.09Y-4.11
X3.16Y-4.11
X3.18Y-3.495
X3.25Y-3.86
X3.3Y-3.7853
X3.3064Y-4.392
X3.3512Y-4.2668
X3.3543Y-4.2289
X3.4398Y-4.4933
X3.4867Y-4.0198
X3.4871Y-3.962
X3.4885Y-4.0779
X3.4903Y-4.1335
X3.4914Y-4.1921
X3.5134Y-4.2852
X3.5403Y-4.2562
X3.624Y-4.0901
X3.6245Y-4.1442
X3.625Y-4.1975
X3.6337Y-4.29
X3.6509Y-4.1167
X3.6513Y-4.1713
X3.6754Y-3.9346
X3.725Y-4.47
X3.7333Y-3.8379
X3.746Y-4.129
X3.7497Y-4.286
X3.8425Y-4.4
X3.88Y-3.96
X3.8969Y-4.234
X3.9Y-4.27
X3.92Y-4.14
X3.9217Y-4.0911
X3.9335Y-4.3242
X3.9407Y-4.1921
X3.9681Y-4.1367
X4.04Y-4.1
X4.04Y-4.31
X4.08Y-4.18
X4.095Y-4.455
X4.1Y-4.28
X4.1172Y-4.311
X4.15Y-4.03
X4.16Y-4.47
X4.18Y-4.05
X4.22Y-4.15
X4.22Y-4.53
X4.25Y-4.43
X4.31Y-4.49
X4.36Y-5.26
X4.47Y-5.19
X4.7Y-4.12
X4.71Y-4.49
X4.7212Y-4.5236
X5.04Y-4.48
X5.17Y-4.4603
X5.72Y-4.88
X5.7924Y-4.4216
X5.8205Y-4.7795
X5.8215Y-4.454
X5.85Y-4.86
X5.87Y-3.84
X5.88Y-5.01
X5.89Y-4.84
X5.9261Y-4.8683
X5.9321Y-4.4331
X5.94Y-5.13
X5.9452Y-4.4673
X5.9562Y-4.8998
X6.0024Y-4.9367
X6.02Y-4.56
X6.07Y-5.12
X6.14Y-4.67
X6.28Y-3.8
X6.3Y-4.62
X6.32Y-3.8
X6.32Y-4.93
X6.32Y-5.09
X6.36Y-3.8
X6.4Y-3.8
X6.44Y-3.8
X6.52Y-3.8
X6.55Y-5.03
X6.55Y-5.09
X6.56Y-3.8
X6.6Y-4.77
X6.64Y-3.53
X6.69Y-3.53
X6.74Y-3.53
X6.77Y-3.85
X6.7993Y-3.6857
X6.85Y-3.81
X6.9Y-4.15
X6.9Y-4.39
T2
X2.89Y-3.76
X3.Y-4.2
X3.41Y-4.55
X4.232Y-5.028
X4.2567Y-3.9633
X4.314Y-4.124
X4.454Y-4.98
X4.84Y-4.66
X5.48Y-5.24
X5.54Y-4.77
T3
X3.1Y-4.515
X3.1Y-4.615
X3.1Y-4.715
X3.1Y-4.815
X3.1Y-4.915
X3.1Y-5.015
X3.1Y-5.115
X3.1Y-5.215
X3.2Y-4.515
X3.2Y-4.615
X3.2Y-4.715
X3.2Y-4.815
X3.2Y-4.915
X3.2Y-5.015
X3.2Y-5.115
X3.2Y-5.215
X3.36Y-3.56
X3.36Y-3.66
X3.46Y-3.56
X3.46Y-3.66
X3.56Y-3.56
X3.56Y-3.66
X3.66Y-3.56
X3.66Y-3.66
X3.76Y-3.56
X3.76Y-3.66
X3.96Y-3.56
X3.96Y-3.66
X4.06Y-3.56
X4.06Y-3.66
X4.41Y-3.79
X4.41Y-3.89
X4.41Y-3.99
X4.41Y-4.19
X4.41Y-4.29
X4.41Y-4.39
X4.41Y-4.49
X4.51Y-3.79
X4.51Y-3.89
X4.51Y-3.99
X4.51Y-4.19
X4.51Y-4.29
X4.51Y-4.39
X4.51Y-4.49
T4
X2.7225Y-3.5625
X2.7225Y-3.7625
X2.7225Y-3.9625
X2.7225Y-4.1625
X2.7225Y-4.3625
X2.7225Y-4.5625
X2.7225Y-4.7625
X2.7225Y-4.9625
X2.7225Y-5.1625
T5
X3.8465Y-5.125
X4.7035Y-5.125
T3
X3.4633Y-4.7889G85X3.5617Y-4.7889
G05
X3.4731Y-5.0252G85X3.5518Y-5.0252
G05
X3.7212Y-4.8579G85X3.7212Y-4.9365
G05
T0
M30
